<svg width="54" height="54" viewBox="0 0 54 54" fill="none" xmlns="http://www.w3.org/2000/svg">
<rect opacity="0.2" x="0.59375" y="-0.00961304" width="53.3002" height="53.5466" rx="26.6501" fill="#FDB52A"/>
<path d="M18.0195 34.7787C18.0195 31.4979 20.6792 28.8383 23.96 28.8383H30.5253C33.8061 28.8383 36.4657 31.4979 36.4657 34.7787C36.4657 35.8723 35.5792 36.7589 34.4856 36.7589H19.9997C18.9061 36.7589 18.0195 35.8723 18.0195 34.7787Z" fill="#FDB52A"/>
<path d="M27.2444 27.3291C30.1472 27.3291 32.5005 24.965 32.5005 22.0488C32.5005 19.1325 30.1472 16.7684 27.2444 16.7684C24.3415 16.7684 21.9883 19.1325 21.9883 22.0488C21.9883 24.965 24.3415 27.3291 27.2444 27.3291Z" fill="#FDB52A"/>
</svg>
