<svg width="54" height="54" viewBox="0 0 54 54" fill="none" xmlns="http://www.w3.org/2000/svg">
<rect opacity="0.2" x="0.136719" y="-0.00958252" width="53.3002" height="53.5466" rx="26.6501" fill="#CB3CFF"/>
<path d="M22.9875 26.0673C23.6699 26.0673 24.2955 25.7503 24.8015 25.2634C24.2708 24.3116 23.9678 23.2348 23.9678 22.2015C23.9678 21.3253 24.1791 20.4987 24.5512 19.7689C24.0897 19.4859 23.5504 19.3201 22.9719 19.3201C21.2808 19.3201 19.9102 20.7106 19.9102 22.4257C19.9102 24.141 21.2965 26.0673 22.9875 26.0673Z" fill="#CB3CFF"/>
<path d="M25.0473 27.5401C24.7485 27.4757 24.4392 27.44 24.1212 27.44H21.8443C19.4214 27.44 17.457 29.4105 17.457 31.8414L17.4673 32.3618C17.4673 33.041 18.0162 33.5917 18.6932 33.5917H20.9383C21.0485 30.8871 22.706 28.5815 25.0473 27.5401Z" fill="#CB3CFF"/>
<path d="M29.2534 26.7165C31.35 26.7165 33.0305 24.3279 33.0305 22.2011C33.0305 20.0743 31.3307 18.3501 29.234 18.3501C27.1374 18.3501 25.4375 20.0743 25.4375 22.2011C25.4377 24.3279 27.1567 26.7165 29.2534 26.7165Z" fill="#CB3CFF"/>
<path d="M36.098 33.877C36.098 30.8626 33.6623 28.4192 30.6579 28.4192H27.8346C24.8302 28.4192 22.3945 30.8626 22.3945 33.877L22.4075 34.5224C22.4075 35.3644 23.0879 36.0473 23.9276 36.0473H34.5911C35.4305 36.0473 36.1112 35.3644 36.1112 34.5224L36.098 33.877Z" fill="#CB3CFF"/>
</svg>
