<?xml version="1.0" standalone="no"?>
<!DOCTYPE svg PUBLIC "-//W3C//DTD SVG 20010904//EN"
 "http://www.w3.org/TR/2001/REC-SVG-20010904/DTD/svg10.dtd">
<svg version="1.0" xmlns="http://www.w3.org/2000/svg"
 width="800.000000pt" height="800.000000pt" viewBox="0 0 800.000000 800.000000"
 preserveAspectRatio="xMidYMid meet">

<g transform="translate(0.000000,800.000000) scale(0.100000,-0.100000)"
fill="#000000" stroke="none">
<path d="M3275 7595 c-352 -64 -919 -289 -1210 -480 -83 -54 -175 -131 -175
-145 0 -19 88 23 140 65 249 205 1007 505 1350 535 86 7 140 21 140 35 0 10
-178 3 -245 -10z"/>
<path d="M4446 7182 c-90 -179 -226 -504 -322 -770 l-34 -93 68 -42 c394 -245
819 -563 1171 -876 l124 -110 36 15 c313 134 659 268 926 359 77 27 144 52
149 56 11 10 -77 251 -155 423 -106 234 -258 486 -406 674 -48 61 -71 80 -128
109 -274 139 -811 281 -1220 322 -60 7 -122 14 -138 16 -25 4 -30 -1 -71 -83z
m541 -1184 c4 -7 15 -14 23 -15 62 -7 273 -107 385 -182 39 -26 101 -64 138
-85 39 -22 64 -42 60 -48 -3 -6 -1 -8 4 -5 6 4 16 0 23 -8 10 -12 4 -24 -36
-66 -96 -101 -104 -105 -159 -70 -45 27 -183 151 -331 297 -123 121 -164 167
-164 186 0 13 48 9 57 -4z"/>
<path d="M1459 6062 c-13 -17 -71 -85 -128 -153 -255 -302 -503 -688 -629
-978 -54 -125 -54 -126 -48 -200 24 -262 125 -634 258 -945 51 -120 113 -253
124 -265 2 -2 92 37 201 87 163 74 507 214 908 371 l70 27 3 50 c20 373 121
1020 226 1459 20 81 36 153 36 160 0 28 -493 241 -825 355 -77 26 -147 51
-156 54 -10 5 -24 -3 -40 -22z m974 -497 c-2 -25 -102 -393 -110 -404 -20 -29
1 153 37 323 21 94 34 119 59 114 11 -3 15 -13 14 -33z"/>
<path d="M7520 4665 c-7 -9 -37 -30 -67 -48 -58 -34 -64 -51 -38 -101 12 -22
15 -62 14 -175 -1 -80 -5 -130 -8 -111 -5 24 -9 -4 -14 -90 -20 -332 -78 -683
-168 -1016 l-22 -81 27 -94 c38 -133 52 -271 40 -394 -6 -55 -9 -102 -8 -104
7 -9 58 62 94 132 71 140 169 476 215 737 52 300 60 395 60 740 -1 368 -13
474 -64 564 -31 56 -42 64 -61 41z"/>
<path d="M4955 3469 c-374 -164 -948 -391 -1260 -499 l-110 -38 2 -329 c1
-307 17 -815 32 -1052 l6 -105 145 -38 c443 -117 902 -185 1259 -189 l154 -1
109 109 c202 200 412 453 593 714 117 169 265 408 265 429 0 16 -21 44 -234
305 -255 312 -687 806 -704 804 -4 0 -119 -50 -257 -110z m263 -6 c4 -26 -18
-40 -77 -49 -53 -8 -54 10 -3 49 42 32 76 32 80 0z"/>
<path d="M1176 2133 c5 -32 5 -32 -52 -49 -32 -9 -84 -17 -116 -18 l-60 -1 7
-40 c14 -93 95 -216 267 -405 349 -386 747 -695 1163 -905 139 -71 236 -105
319 -112 l59 -6 -83 79 c-99 95 -169 195 -227 327 -49 110 -47 104 -30 110 6
2 4 3 -5 2 -10 -2 -18 1 -18 5 0 4 -12 13 -27 19 -41 16 -102 53 -265 162
-286 190 -477 346 -726 595 -122 122 -168 175 -187 216 -20 41 -24 46 -19 21z"/>
<path d="M900 2126 c0 -2 7 -7 16 -10 8 -3 12 -2 9 4 -6 10 -25 14 -25 6z"/>
<path d="M5750 813 c-126 -59 -249 -100 -332 -108 -38 -4 -68 -11 -68 -15 0
-12 -134 -94 -205 -126 -33 -15 -116 -47 -185 -70 -141 -49 -137 -56 9 -19
231 58 531 177 736 291 91 51 160 95 145 93 -3 0 -48 -21 -100 -46z"/>
</g>
</svg>
