<svg width="54" height="54" viewBox="0 0 54 54" fill="none" xmlns="http://www.w3.org/2000/svg">
<rect opacity="0.2" x="0.0546875" y="-0.00961304" width="53.3002" height="53.5466" rx="26.6501" fill="#DD0A35"/>
<path d="M27 17C21.47 17 17 21.47 17 27C17 32.53 21.47 37 27 37C32.53 37 37 32.53 37 27C37 21.47 32.53 17 27 17ZM31.3 31.3C31.2075 31.3927 31.0976 31.4663 30.9766 31.5164C30.8557 31.5666 30.726 31.5924 30.595 31.5924C30.464 31.5924 30.3343 31.5666 30.2134 31.5164C30.0924 31.4663 29.9825 31.3927 29.89 31.3L27 28.41L24.11 31.3C23.923 31.487 23.6694 31.592 23.405 31.592C23.1406 31.592 22.887 31.487 22.7 31.3C22.513 31.113 22.408 30.8594 22.408 30.595C22.408 30.4641 22.4338 30.3344 22.4839 30.2135C22.534 30.0925 22.6074 29.9826 22.7 29.89L25.59 27L22.7 24.11C22.513 23.923 22.408 23.6694 22.408 23.405C22.408 23.1406 22.513 22.887 22.7 22.7C22.887 22.513 23.1406 22.408 23.405 22.408C23.6694 22.408 23.923 22.513 24.11 22.7L27 25.59L29.89 22.7C29.9826 22.6074 30.0925 22.534 30.2135 22.4839C30.3344 22.4338 30.4641 22.408 30.595 22.408C30.7259 22.408 30.8556 22.4338 30.9765 22.4839C31.0975 22.534 31.2074 22.6074 31.3 22.7C31.3926 22.7926 31.466 22.9025 31.5161 23.0235C31.5662 23.1444 31.592 23.2741 31.592 23.405C31.592 23.5359 31.5662 23.6656 31.5161 23.7865C31.466 23.9075 31.3926 24.0174 31.3 24.11L28.41 27L31.3 29.89C31.68 30.27 31.68 30.91 31.3 31.3Z" fill="#DD0A35"/>
</svg>
