<svg width="20" height="21" viewBox="0 0 20 21" fill="none" xmlns="http://www.w3.org/2000/svg">
<path d="M19 10.5C19 15.4706 14.9706 19.5 10 19.5C8.80286 19.5 7.6603 19.2663 6.61549 18.8419C6.41552 18.7607 6.31554 18.7201 6.23472 18.702C6.15566 18.6843 6.09715 18.6778 6.01613 18.6778C5.9333 18.6778 5.84309 18.6928 5.66265 18.7229L2.10476 19.3159C1.73218 19.378 1.54589 19.409 1.41118 19.3512C1.29328 19.3007 1.19933 19.2067 1.14876 19.0888C1.09098 18.9541 1.12203 18.7678 1.18413 18.3952L1.77711 14.8374C1.80718 14.6569 1.82222 14.5667 1.82221 14.4839C1.8222 14.4028 1.81572 14.3443 1.798 14.2653C1.77988 14.1845 1.73927 14.0845 1.65806 13.8845C1.23374 12.8397 1 11.6971 1 10.5C1 5.52944 5.02944 1.5 10 1.5C14.9706 1.5 19 5.52944 19 10.5Z" stroke="url(#paint0_linear_2624_1221)" stroke-width="2" stroke-linecap="round" stroke-linejoin="round"/>
<defs>
<linearGradient id="paint0_linear_2624_1221" x1="10" y1="1.5" x2="10" y2="19.5" gradientUnits="userSpaceOnUse">
<stop stop-color="#9847FE"/>
<stop offset="1" stop-color="#FC819F"/>
</linearGradient>
</defs>
</svg>
