<svg width="54" height="54" viewBox="0 0 54 54" fill="none" xmlns="http://www.w3.org/2000/svg">
<rect opacity="0.2" x="0.0539551" y="-0.00878906" width="53.3002" height="53.5466" rx="26.6501" fill="#9847FE"/>
<g clip-path="url(#clip0_1886_9394)">
<g filter="url(#filter0_d_1886_9394)">
<path d="M26.9993 17.001C21.4693 17.001 16.9993 21.471 16.9993 27.001C16.9993 32.531 21.4693 37.001 26.9993 37.001C32.5293 37.001 36.9993 32.531 36.9993 27.001C36.9993 21.471 32.5293 17.001 26.9993 17.001ZM31.2993 31.301C31.2068 31.3937 31.0969 31.4672 30.9759 31.5174C30.8549 31.5676 30.7252 31.5934 30.5943 31.5934C30.4633 31.5934 30.3336 31.5676 30.2126 31.5174C30.0917 31.4672 29.9818 31.3937 29.8893 31.301L26.9993 28.411L24.1093 31.301C23.9223 31.488 23.6687 31.593 23.4043 31.593C23.1398 31.593 22.8862 31.488 22.6993 31.301C22.5123 31.114 22.4072 30.8604 22.4072 30.596C22.4072 30.465 22.433 30.3354 22.4831 30.2144C22.5332 30.0935 22.6067 29.9836 22.6993 29.891L25.5893 27.001L22.6993 24.111C22.5123 23.924 22.4072 23.6704 22.4072 23.406C22.4072 23.1416 22.5123 22.888 22.6993 22.701C22.8862 22.514 23.1398 22.409 23.4043 22.409C23.6687 22.409 23.9223 22.514 24.1093 22.701L26.9993 25.591L29.8893 22.701C29.9818 22.6084 30.0918 22.535 30.2127 22.4848C30.3337 22.4347 30.4633 22.409 30.5943 22.409C30.7252 22.409 30.8548 22.4347 30.9758 22.4848C31.0968 22.535 31.2067 22.6084 31.2993 22.701C31.3918 22.7936 31.4653 22.9035 31.5154 23.0244C31.5655 23.1454 31.5913 23.275 31.5913 23.406C31.5913 23.5369 31.5655 23.6666 31.5154 23.7875C31.4653 23.9085 31.3918 24.0184 31.2993 24.111L28.4093 27.001L31.2993 29.891C31.6793 30.271 31.6793 30.911 31.2993 31.301Z" fill="#9847FE"/>
<path d="M31.6532 31.6542L31.6532 31.6542C31.5142 31.7934 31.3492 31.9039 31.1675 31.9792C30.9858 32.0546 30.791 32.0934 30.5943 32.0934C30.3976 32.0934 30.2028 32.0546 30.0211 31.9792C29.8395 31.9039 29.6746 31.7936 29.5357 31.6545L31.6532 31.6542ZM31.6532 31.6542L31.6574 31.6499C32.2241 31.0683 32.2306 30.1152 31.6528 29.5374L29.1164 27.001L31.6528 24.4645C31.7918 24.3255 31.9021 24.1605 31.9773 23.9789C32.0526 23.7972 32.0913 23.6026 32.0913 23.406C32.0913 23.2094 32.0526 23.0147 31.9773 22.8331C31.9021 22.6515 31.7918 22.4864 31.6528 22.3474C31.5138 22.2084 31.3488 22.0981 31.1672 22.0229C30.9855 21.9477 30.7909 21.909 30.5943 21.909C30.3977 21.909 30.203 21.9477 30.0214 22.0229C29.8398 22.0981 29.6747 22.2084 29.5357 22.3474L26.9993 24.8839L24.4628 22.3474C24.1821 22.0667 23.8013 21.909 23.4043 21.909C23.0072 21.909 22.6265 22.0667 22.3457 22.3474C22.065 22.6282 21.9072 23.0089 21.9072 23.406C21.9072 23.803 22.065 24.1838 22.3457 24.4645L24.8822 27.001L22.3457 29.5374C22.2067 29.6764 22.0964 29.8415 22.0212 30.0231C21.946 30.2047 21.9072 30.3994 21.9072 30.596C21.9072 30.993 22.065 31.3738 22.3457 31.6545C22.6265 31.9353 23.0072 32.093 23.4043 32.093C23.8013 32.093 24.1821 31.9353 24.4628 31.6545L26.9993 29.1181L29.5354 31.6542L31.6532 31.6542ZM17.4993 27.001C17.4993 21.7471 21.7454 17.501 26.9993 17.501C32.2531 17.501 36.4993 21.7471 36.4993 27.001C36.4993 32.2548 32.2531 36.501 26.9993 36.501C21.7454 36.501 17.4993 32.2548 17.4993 27.001Z" stroke="black"/>
</g>
</g>
<defs>
<filter id="filter0_d_1886_9394" x="12.9993" y="17.001" width="28" height="28" filterUnits="userSpaceOnUse" color-interpolation-filters="sRGB">
<feFlood flood-opacity="0" result="BackgroundImageFix"/>
<feColorMatrix in="SourceAlpha" type="matrix" values="0 0 0 0 0 0 0 0 0 0 0 0 0 0 0 0 0 0 127 0" result="hardAlpha"/>
<feOffset dy="4"/>
<feGaussianBlur stdDeviation="2"/>
<feComposite in2="hardAlpha" operator="out"/>
<feColorMatrix type="matrix" values="0 0 0 0 0 0 0 0 0 0 0 0 0 0 0 0 0 0 0.25 0"/>
<feBlend mode="normal" in2="BackgroundImageFix" result="effect1_dropShadow_1886_9394"/>
<feBlend mode="normal" in="SourceGraphic" in2="effect1_dropShadow_1886_9394" result="shape"/>
</filter>
<clipPath id="clip0_1886_9394">
<rect width="24" height="24" fill="white" transform="translate(14.9993 15.001)"/>
</clipPath>
</defs>
</svg>
