<svg width="55" height="54" viewBox="0 0 55 54" fill="none" xmlns="http://www.w3.org/2000/svg">
<rect opacity="0.2" x="0.9375" y="-0.00961304" width="53.3002" height="53.5466" rx="26.6501" fill="#05C168"/>
<path d="M32.3236 17.244C31.4042 17.244 30.4974 17.459 29.6751 17.8721C28.8528 18.2852 28.1375 18.8849 27.5858 19.6238C26.84 18.6249 25.8003 17.8869 24.6138 17.5146C23.4274 17.1423 22.1544 17.1544 20.9752 17.5493C19.7961 17.9442 18.7704 18.7018 18.0437 19.7148C17.3169 20.7278 16.9258 21.9449 16.9258 23.1936C16.9258 30.3232 26.7863 35.9456 27.2009 36.1836C27.3183 36.2499 27.4511 36.2841 27.5858 36.2828C27.7207 36.2851 27.8536 36.2508 27.9708 36.1836C29.7866 35.1171 31.4898 33.8679 33.054 32.4552C36.4988 29.3415 38.2458 26.2279 38.2458 23.1936C38.2458 21.6157 37.6219 20.1024 36.5113 18.9866C35.4006 17.8708 33.8943 17.244 32.3236 17.244Z" fill="#05C168"/>
</svg>
