<svg width="102" height="42" viewBox="0 0 102 42" fill="none" xmlns="http://www.w3.org/2000/svg">
<path d="M29.1006 34.9692C24.171 35.5169 22.7882 36.1893 15.6675 35.6415C14.8952 35.5821 10.1773 34.649 9.92972 34.4215C8.83424 33.8737 7.30471 32.7369 6.97274 32.4483C6.64087 32.1597 6.41841 31.7412 6.03658 31.5121C5.04095 30.9147 4.30916 29.3946 3.49853 28.5441C2.66262 27.6671 2.25221 26.4973 1.78569 25.4027C1.22699 24.092 0.794044 22.9457 0.794044 21.5194C0.794044 20.5208 0.710557 19.4697 0.800979 18.4751C0.942527 16.9181 1.60595 14.8738 2.29191 13.4822C2.92437 12.1992 3.83034 11.0445 4.81609 10.0149C5.47199 9.32989 6.29707 8.89657 6.96581 8.25356C8.15504 7.11007 9.11437 6.32474 10.766 5.86113C12.2769 5.43702 13.7185 5.06826 15.1555 4.43955C16.0505 4.04799 17.0881 3.61465 18.0611 3.46871C19.1613 3.30368 20.1364 2.99716 21.2649 2.99716C22.686 2.99716 24.6264 3.39602 25.8902 2.6851C26.5546 2.31138 27.6592 2.38478 28.4006 2.24129C30.0107 1.92965 31.6587 1.49929 33.3033 1.49929C36.1725 1.49929 39.021 1.74893 41.8883 1.74893C44.8729 1.74893 47.8583 1.83916 50.8339 1.87376C51.9385 1.8866 52.8606 1.33717 53.9683 1.15256C54.5517 1.05532 55.1751 1.13971 55.7644 1.11789C57.3108 1.06061 58.8484 1 60.3966 1C62.2329 1 63.9582 1.02584 65.7709 1.31206C66.8256 1.47857 67.876 1.24964 68.947 1.24964C70.0357 1.24964 71.1244 1.24964 72.2131 1.24964C73.8385 1.24964 75.252 1.96843 76.8801 1.99858C77.5803 2.01154 78.2681 2.37304 78.9327 2.37304C79.3927 2.37304 79.8527 2.37304 80.3127 2.37304C82.569 2.37304 84.4675 2.47258 86.6717 3.05263C87.706 3.3248 88.6584 3.7629 89.6675 4.05121C91.3217 4.52384 93.5222 5.62397 94.5771 6.99147C95.6338 8.36126 97.08 9.55618 97.8502 11.0967C98.0146 11.4254 98.223 11.8054 98.5021 12.0398C98.8302 12.3154 98.9833 13.1222 99.1609 13.4892C99.6195 14.4369 100.093 15.2702 100.347 16.2838C100.588 17.2509 100.652 18.1834 100.652 19.1686C100.652 19.51 100.593 19.9035 100.735 20.2226C101.024 20.8727 101.026 21.3767 101.026 22.095C101.026 23.2811 100.994 24.2663 100.68 25.4097C100.577 25.7811 100.356 26.0545 100.229 26.4083C100.101 26.7637 100.105 27.0849 99.8751 27.4068C99.0147 28.6114 98.3548 29.8703 97.2816 30.9435C95.9889 32.2361 94.5522 33.2897 92.9544 34.2027C91.176 35.219 89.1349 35.9595 87.171 36.4772C86.0969 36.7604 85.1841 37.1046 84.0574 36.8933C83.6779 36.8222 83.0386 37.1236 82.6774 37.2262C82.0687 37.3991 81.5452 37.4184 80.923 37.455C79.4663 37.5407 78.2559 37.9554 76.8454 38.308C76.1556 38.4804 75.4835 38.3978 74.7859 38.4744C73.9987 38.5608 73.2172 38.7578 72.4351 38.8835C69.6928 39.3243 66.8635 39.8241 64.0928 39.9445C63.5267 39.9691 63.0241 40.2818 62.4493 40.3121C61.6602 40.3536 60.8606 40.319 60.0707 40.319C58.5695 40.319 57.0347 40.2367 55.5355 40.3467C54.5466 40.4193 53.5307 40.5548 52.5398 40.5548C52.0902 40.5548 51.6439 40.3796 51.1945 40.4716C50.0544 40.7047 48.9714 40.9431 47.7896 40.9431C44.2573 40.9431 40.5204 41.3028 37.0202 40.7559C35.6039 40.5346 34.1539 40.8278 32.7347 40.5617C29.7117 39.9949 27.132 39.6307 24.171 38.8034C22.8699 38.4398 21.0406 37.9425 18.6936 37.1602C17.0503 36.6124 14.8275 35.1212 13.7639 34.4215C12.1588 33.3654 11.5729 32.7782 9.92972 31.135C9.60628 30.8978 7.73876 27.8486 6.97274 26.2054" stroke="url(#paint0_linear_1180_868)" stroke-width="1.09548" stroke-linecap="round"/>
<defs>
<linearGradient id="paint0_linear_1180_868" x1="12.6684" y1="4.84348" x2="93.1863" y2="35.5169" gradientUnits="userSpaceOnUse">
<stop stop-color="#9847FE"/>
<stop offset="1" stop-color="#FC819F"/>
</linearGradient>
</defs>
</svg>
